<svg xmlns="http://www.w3.org/2000/svg" xmlns:xlink="http://www.w3.org/1999/xlink" width="350" zoomAndPan="magnify" viewBox="0 0 262.5 262.500001" height="350" preserveAspectRatio="xMidYMid meet" version="1.0"><defs><clipPath id="907a8f32a0"><path d="M 4.039062 92 L 115 92 L 115 144 L 4.039062 144 Z M 4.039062 92 " clip-rule="nonzero"/></clipPath><clipPath id="a768b65f6a"><path d="M 4.039062 92 L 115 92 L 115 103 L 4.039062 103 Z M 4.039062 92 " clip-rule="nonzero"/></clipPath><clipPath id="866224f497"><path d="M 4.039062 92 L 115 92 L 115 144 L 4.039062 144 Z M 4.039062 92 " clip-rule="nonzero"/></clipPath><clipPath id="d00198c4b7"><path d="M 4.039062 92 L 115 92 L 115 103 L 4.039062 103 Z M 4.039062 92 " clip-rule="nonzero"/></clipPath><clipPath id="4f149f622e"><path d="M 4.039062 0 L 114 0 L 114 69 L 4.039062 69 Z M 4.039062 0 " clip-rule="nonzero"/></clipPath><clipPath id="d18e23a364"><path d="M 4.039062 0 L 114 0 L 114 10 L 4.039062 10 Z M 4.039062 0 " clip-rule="nonzero"/></clipPath><clipPath id="ed102d94c0"><path d="M 228 239 L 257.804688 239 L 257.804688 262 L 228 262 Z M 228 239 " clip-rule="nonzero"/></clipPath></defs><path fill="#759df5" d="M 137.921875 11.675781 C 137.921875 9.636719 139.574219 7.988281 141.609375 7.988281 L 244.160156 7.988281 C 246.195312 7.988281 247.84375 9.636719 247.84375 11.675781 L 247.84375 54.6875 C 247.84375 56.722656 246.195312 58.371094 244.160156 58.371094 L 141.609375 58.371094 C 139.574219 58.371094 137.921875 56.722656 137.921875 54.6875 Z M 137.921875 11.675781 " fill-opacity="1" fill-rule="nonzero"/><path fill="#3e77f4" d="M 137.921875 11.675781 C 137.921875 9.636719 139.574219 7.988281 141.609375 7.988281 L 244.160156 7.988281 C 246.195312 7.988281 247.84375 9.636719 247.84375 11.675781 L 247.84375 17.820312 L 137.921875 17.820312 Z M 137.921875 11.675781 " fill-opacity="1" fill-rule="nonzero"/><path fill="#f2f2f2" d="M 178.144531 26.113281 C 178.144531 25.605469 178.558594 25.191406 179.066406 25.191406 L 207.007812 25.191406 C 207.515625 25.191406 207.929688 25.605469 207.929688 26.113281 C 207.929688 26.625 207.515625 27.035156 207.007812 27.035156 L 179.066406 27.035156 C 178.558594 27.035156 178.144531 26.625 178.144531 26.113281 Z M 178.144531 26.113281 " fill-opacity="1" fill-rule="evenodd"/><path fill="#f2f2f2" d="M 178.144531 31.953125 C 178.144531 31.441406 178.558594 31.03125 179.066406 31.03125 L 219.597656 31.03125 C 220.105469 31.03125 220.515625 31.441406 220.515625 31.953125 C 220.515625 32.460938 220.105469 32.871094 219.597656 32.871094 L 179.066406 32.871094 C 178.558594 32.871094 178.144531 32.460938 178.144531 31.953125 Z M 178.144531 31.953125 " fill-opacity="1" fill-rule="evenodd"/><path fill="#3e77f4" d="M 150.203125 26.421875 C 150.203125 25.742188 150.753906 25.191406 151.433594 25.191406 L 172.3125 25.191406 C 172.988281 25.191406 173.539062 25.742188 173.539062 26.421875 L 173.539062 47.3125 C 173.539062 47.992188 172.988281 48.542969 172.3125 48.542969 L 151.433594 48.542969 C 150.753906 48.542969 150.203125 47.992188 150.203125 47.3125 Z M 150.203125 26.421875 " fill-opacity="1" fill-rule="nonzero"/><path fill="#f2f2f2" d="M 157.574219 31.179688 C 157.574219 30.703125 158.085938 30.410156 158.496094 30.648438 L 167.71875 36.027344 C 168.125 36.265625 168.125 36.851562 167.71875 37.089844 L 158.496094 42.472656 C 158.085938 42.710938 157.574219 42.417969 157.574219 41.941406 Z M 157.574219 31.179688 " fill-opacity="1" fill-rule="nonzero"/><path fill="#f2f2f2" d="M 144.679688 12.902344 C 144.679688 13.582031 144.128906 14.132812 143.449219 14.132812 C 142.769531 14.132812 142.222656 13.582031 142.222656 12.902344 C 142.222656 12.226562 142.769531 11.675781 143.449219 11.675781 C 144.128906 11.675781 144.679688 12.226562 144.679688 12.902344 Z M 144.679688 12.902344 " fill-opacity="1" fill-rule="nonzero"/><path fill="#f2f2f2" d="M 149.589844 12.902344 C 149.589844 13.582031 149.039062 14.132812 148.363281 14.132812 C 147.683594 14.132812 147.132812 13.582031 147.132812 12.902344 C 147.132812 12.226562 147.683594 11.675781 148.363281 11.675781 C 149.039062 11.675781 149.589844 12.226562 149.589844 12.902344 Z M 149.589844 12.902344 " fill-opacity="1" fill-rule="nonzero"/><path fill="#f2f2f2" d="M 154.503906 12.902344 C 154.503906 13.582031 153.953125 14.132812 153.273438 14.132812 C 152.597656 14.132812 152.046875 13.582031 152.046875 12.902344 C 152.046875 12.226562 152.597656 11.675781 153.273438 11.675781 C 153.953125 11.675781 154.503906 12.226562 154.503906 12.902344 Z M 154.503906 12.902344 " fill-opacity="1" fill-rule="nonzero"/><g clip-path="url(#907a8f32a0)"><path fill="#759df5" d="M 4.667969 96.46875 C 4.667969 94.433594 6.316406 92.78125 8.351562 92.78125 L 110.902344 92.78125 C 112.9375 92.78125 114.589844 94.433594 114.589844 96.46875 L 114.589844 139.480469 C 114.589844 141.515625 112.9375 143.167969 110.902344 143.167969 L 8.351562 143.167969 C 6.316406 143.167969 4.667969 141.515625 4.667969 139.480469 Z M 4.667969 96.46875 " fill-opacity="1" fill-rule="nonzero"/></g><g clip-path="url(#a768b65f6a)"><path fill="#3e77f4" d="M 4.667969 96.46875 C 4.667969 94.433594 6.316406 92.78125 8.351562 92.78125 L 110.902344 92.78125 C 112.9375 92.78125 114.589844 94.433594 114.589844 96.46875 L 114.589844 102.613281 L 4.667969 102.613281 Z M 4.667969 96.46875 " fill-opacity="1" fill-rule="nonzero"/></g><path fill="#f2f2f2" d="M 44.890625 110.90625 C 44.890625 110.398438 45.300781 109.988281 45.8125 109.988281 L 73.75 109.988281 C 74.261719 109.988281 74.671875 110.398438 74.671875 110.90625 C 74.671875 111.417969 74.261719 111.828125 73.75 111.828125 L 45.8125 111.828125 C 45.300781 111.828125 44.890625 111.417969 44.890625 110.90625 Z M 44.890625 110.90625 " fill-opacity="1" fill-rule="evenodd"/><path fill="#f2f2f2" d="M 44.890625 116.746094 C 44.890625 116.238281 45.300781 115.824219 45.8125 115.824219 L 86.339844 115.824219 C 86.847656 115.824219 87.261719 116.238281 87.261719 116.746094 C 87.261719 117.253906 86.847656 117.667969 86.339844 117.667969 L 45.8125 117.667969 C 45.300781 117.667969 44.890625 117.253906 44.890625 116.746094 Z M 44.890625 116.746094 " fill-opacity="1" fill-rule="evenodd"/><path fill="#3e77f4" d="M 16.949219 111.214844 C 16.949219 110.535156 17.5 109.988281 18.175781 109.988281 L 39.054688 109.988281 C 39.734375 109.988281 40.285156 110.535156 40.285156 111.214844 L 40.285156 132.105469 C 40.285156 132.785156 39.734375 133.335938 39.054688 133.335938 L 18.175781 133.335938 C 17.5 133.335938 16.949219 132.785156 16.949219 132.105469 Z M 16.949219 111.214844 " fill-opacity="1" fill-rule="nonzero"/><path fill="#f2f2f2" d="M 11.421875 97.699219 C 11.421875 98.375 10.871094 98.925781 10.195312 98.925781 C 9.515625 98.925781 8.964844 98.375 8.964844 97.699219 C 8.964844 97.019531 9.515625 96.46875 10.195312 96.46875 C 10.871094 96.46875 11.421875 97.019531 11.421875 97.699219 Z M 11.421875 97.699219 " fill-opacity="1" fill-rule="nonzero"/><path fill="#f2f2f2" d="M 16.335938 97.699219 C 16.335938 98.375 15.785156 98.925781 15.105469 98.925781 C 14.429688 98.925781 13.878906 98.375 13.878906 97.699219 C 13.878906 97.019531 14.429688 96.46875 15.105469 96.46875 C 15.785156 96.46875 16.335938 97.019531 16.335938 97.699219 Z M 16.335938 97.699219 " fill-opacity="1" fill-rule="nonzero"/><path fill="#f2f2f2" d="M 21.246094 97.699219 C 21.246094 98.375 20.699219 98.925781 20.019531 98.925781 C 19.339844 98.925781 18.792969 98.375 18.792969 97.699219 C 18.792969 97.019531 19.339844 96.46875 20.019531 96.46875 C 20.699219 96.46875 21.246094 97.019531 21.246094 97.699219 Z M 21.246094 97.699219 " fill-opacity="1" fill-rule="nonzero"/><path fill="#f2f2f2" d="M 26.679688 117.304688 L 32.675781 115.304688 C 33.273438 115.105469 33.890625 115.550781 33.890625 116.179688 L 33.890625 124.441406 C 33.890625 125.070312 33.273438 125.515625 32.675781 125.316406 L 26.679688 123.316406 Z M 26.679688 117.304688 " fill-opacity="1" fill-rule="nonzero"/><path fill="#f2f2f2" d="M 24.578125 117.304688 L 26.980469 117.304688 L 26.980469 127.804688 C 26.980469 128.3125 26.570312 128.726562 26.058594 128.726562 L 25.5 128.726562 C 24.992188 128.726562 24.578125 128.3125 24.578125 127.804688 Z M 24.578125 117.304688 " fill-opacity="1" fill-rule="nonzero"/><path fill="#f2f2f2" d="M 35.089844 120.914062 C 35.089844 121.578125 34.554688 122.113281 33.890625 122.113281 C 33.226562 122.113281 32.6875 121.578125 32.6875 120.914062 C 32.6875 120.25 33.226562 119.710938 33.890625 119.710938 C 34.554688 119.710938 35.089844 120.25 35.089844 120.914062 Z M 35.089844 120.914062 " fill-opacity="1" fill-rule="nonzero"/><g clip-path="url(#866224f497)"><path fill="#759df5" d="M 4.667969 96.46875 C 4.667969 94.433594 6.316406 92.78125 8.351562 92.78125 L 110.902344 92.78125 C 112.9375 92.78125 114.589844 94.433594 114.589844 96.46875 L 114.589844 139.480469 C 114.589844 141.515625 112.9375 143.167969 110.902344 143.167969 L 8.351562 143.167969 C 6.316406 143.167969 4.667969 141.515625 4.667969 139.480469 Z M 4.667969 96.46875 " fill-opacity="1" fill-rule="nonzero"/></g><g clip-path="url(#d00198c4b7)"><path fill="#3e77f4" d="M 4.667969 96.46875 C 4.667969 94.433594 6.316406 92.78125 8.351562 92.78125 L 110.902344 92.78125 C 112.9375 92.78125 114.589844 94.433594 114.589844 96.46875 L 114.589844 102.613281 L 4.667969 102.613281 Z M 4.667969 96.46875 " fill-opacity="1" fill-rule="nonzero"/></g><path fill="#f2f2f2" d="M 44.890625 110.90625 C 44.890625 110.398438 45.300781 109.988281 45.8125 109.988281 L 73.75 109.988281 C 74.261719 109.988281 74.671875 110.398438 74.671875 110.90625 C 74.671875 111.417969 74.261719 111.828125 73.75 111.828125 L 45.8125 111.828125 C 45.300781 111.828125 44.890625 111.417969 44.890625 110.90625 Z M 44.890625 110.90625 " fill-opacity="1" fill-rule="evenodd"/><path fill="#f2f2f2" d="M 44.890625 116.746094 C 44.890625 116.238281 45.300781 115.824219 45.8125 115.824219 L 86.339844 115.824219 C 86.847656 115.824219 87.261719 116.238281 87.261719 116.746094 C 87.261719 117.253906 86.847656 117.667969 86.339844 117.667969 L 45.8125 117.667969 C 45.300781 117.667969 44.890625 117.253906 44.890625 116.746094 Z M 44.890625 116.746094 " fill-opacity="1" fill-rule="evenodd"/><path fill="#3e77f4" d="M 16.949219 111.214844 C 16.949219 110.535156 17.5 109.988281 18.175781 109.988281 L 39.054688 109.988281 C 39.734375 109.988281 40.285156 110.535156 40.285156 111.214844 L 40.285156 132.105469 C 40.285156 132.785156 39.734375 133.335938 39.054688 133.335938 L 18.175781 133.335938 C 17.5 133.335938 16.949219 132.785156 16.949219 132.105469 Z M 16.949219 111.214844 " fill-opacity="1" fill-rule="nonzero"/><path fill="#f2f2f2" d="M 11.421875 97.699219 C 11.421875 98.375 10.871094 98.925781 10.195312 98.925781 C 9.515625 98.925781 8.964844 98.375 8.964844 97.699219 C 8.964844 97.019531 9.515625 96.46875 10.195312 96.46875 C 10.871094 96.46875 11.421875 97.019531 11.421875 97.699219 Z M 11.421875 97.699219 " fill-opacity="1" fill-rule="nonzero"/><path fill="#f2f2f2" d="M 16.335938 97.699219 C 16.335938 98.375 15.785156 98.925781 15.105469 98.925781 C 14.429688 98.925781 13.878906 98.375 13.878906 97.699219 C 13.878906 97.019531 14.429688 96.46875 15.105469 96.46875 C 15.785156 96.46875 16.335938 97.019531 16.335938 97.699219 Z M 16.335938 97.699219 " fill-opacity="1" fill-rule="nonzero"/><path fill="#f2f2f2" d="M 21.246094 97.699219 C 21.246094 98.375 20.699219 98.925781 20.019531 98.925781 C 19.339844 98.925781 18.792969 98.375 18.792969 97.699219 C 18.792969 97.019531 19.339844 96.46875 20.019531 96.46875 C 20.699219 96.46875 21.246094 97.019531 21.246094 97.699219 Z M 21.246094 97.699219 " fill-opacity="1" fill-rule="nonzero"/><path fill="#f2f2f2" d="M 26.679688 117.304688 L 32.675781 115.304688 C 33.273438 115.105469 33.890625 115.550781 33.890625 116.179688 L 33.890625 124.441406 C 33.890625 125.070312 33.273438 125.515625 32.675781 125.316406 L 26.679688 123.316406 Z M 26.679688 117.304688 " fill-opacity="1" fill-rule="nonzero"/><path fill="#f2f2f2" d="M 24.578125 117.304688 L 26.980469 117.304688 L 26.980469 127.804688 C 26.980469 128.3125 26.570312 128.726562 26.058594 128.726562 L 25.5 128.726562 C 24.992188 128.726562 24.578125 128.3125 24.578125 127.804688 Z M 24.578125 117.304688 " fill-opacity="1" fill-rule="nonzero"/><path fill="#f2f2f2" d="M 35.089844 120.914062 C 35.089844 121.578125 34.554688 122.113281 33.890625 122.113281 C 33.226562 122.113281 32.6875 121.578125 32.6875 120.914062 C 32.6875 120.25 33.226562 119.710938 33.890625 119.710938 C 34.554688 119.710938 35.089844 120.25 35.089844 120.914062 Z M 35.089844 120.914062 " fill-opacity="1" fill-rule="nonzero"/><g clip-path="url(#4f149f622e)"><path fill="#759df5" d="M 4.054688 3.6875 C 4.054688 1.652344 5.703125 0 7.738281 0 L 110.289062 0 C 112.324219 0 113.972656 1.652344 113.972656 3.6875 L 113.972656 65.132812 C 113.972656 67.167969 112.324219 68.816406 110.289062 68.816406 L 7.738281 68.816406 C 5.703125 68.816406 4.054688 67.167969 4.054688 65.132812 Z M 4.054688 3.6875 " fill-opacity="1" fill-rule="nonzero"/></g><g clip-path="url(#d18e23a364)"><path fill="#3e77f4" d="M 4.054688 3.6875 C 4.054688 1.652344 5.703125 0 7.738281 0 L 110.289062 0 C 112.324219 0 113.972656 1.652344 113.972656 3.6875 L 113.972656 9.832031 L 4.054688 9.832031 Z M 4.054688 3.6875 " fill-opacity="1" fill-rule="nonzero"/></g><path fill="#f2f2f2" d="M 10.808594 4.914062 C 10.808594 5.59375 10.257812 6.144531 9.582031 6.144531 C 8.902344 6.144531 8.351562 5.59375 8.351562 4.914062 C 8.351562 4.238281 8.902344 3.6875 9.582031 3.6875 C 10.257812 3.6875 10.808594 4.238281 10.808594 4.914062 Z M 10.808594 4.914062 " fill-opacity="1" fill-rule="nonzero"/><path fill="#f2f2f2" d="M 15.722656 4.914062 C 15.722656 5.59375 15.171875 6.144531 14.492188 6.144531 C 13.816406 6.144531 13.265625 5.59375 13.265625 4.914062 C 13.265625 4.238281 13.816406 3.6875 14.492188 3.6875 C 15.171875 3.6875 15.722656 4.238281 15.722656 4.914062 Z M 15.722656 4.914062 " fill-opacity="1" fill-rule="nonzero"/><path fill="#f2f2f2" d="M 20.632812 4.914062 C 20.632812 5.59375 20.082031 6.144531 19.40625 6.144531 C 18.726562 6.144531 18.175781 5.59375 18.175781 4.914062 C 18.175781 4.238281 18.726562 3.6875 19.40625 3.6875 C 20.082031 3.6875 20.632812 4.238281 20.632812 4.914062 Z M 20.632812 4.914062 " fill-opacity="1" fill-rule="nonzero"/><path fill="#f2f2f2" d="M 30.457031 36.867188 L 37.214844 36.867188 L 37.214844 58.371094 L 30.457031 58.371094 Z M 30.457031 36.867188 " fill-opacity="1" fill-rule="nonzero"/><path fill="#f2f2f2" d="M 41.511719 29.492188 L 48.265625 29.492188 L 48.265625 58.371094 L 41.511719 58.371094 Z M 41.511719 29.492188 " fill-opacity="1" fill-rule="nonzero"/><path fill="#f2f2f2" d="M 52.566406 22.121094 L 59.320312 22.121094 L 59.320312 58.371094 L 52.566406 58.371094 Z M 52.566406 22.121094 " fill-opacity="1" fill-rule="nonzero"/><path fill="#f2f2f2" d="M 63.621094 15.359375 L 70.375 15.359375 L 70.375 58.371094 L 63.621094 58.371094 Z M 63.621094 15.359375 " fill-opacity="1" fill-rule="nonzero"/><path fill="#fcbfbc" d="M 95.953125 253.890625 C 97.5625 252.234375 98.351562 242.925781 98.078125 238.753906 L 110.011719 238.4375 C 110.042969 238.734375 108.238281 249.023438 112.542969 250.359375 C 109.433594 254.734375 99.074219 254.355469 95.953125 253.890625 Z M 95.953125 253.890625 " fill-opacity="1" fill-rule="nonzero"/><path fill="#759df5" d="M 108.429688 245.988281 C 106.304688 246.976562 107.175781 248.039062 105.363281 249.996094 C 101.921875 253.710938 99.4375 247.167969 97.082031 249.394531 C 95.613281 250.78125 96.214844 257.652344 96.945312 261.066406 C 102.839844 261.683594 114.117188 262.019531 121.757812 261.636719 C 124.050781 261.523438 126.773438 261.492188 128.148438 259.65625 C 130.199219 256.921875 123.320312 253.269531 118.769531 251.5 C 117.988281 250.984375 117.230469 250.457031 116.535156 249.957031 L 116.335938 249.816406 C 115.867188 249.484375 115.414062 249.144531 114.972656 248.808594 C 114.296875 248.300781 113.648438 247.804688 113.027344 247.367188 C 111.289062 246.140625 109.765625 245.367188 108.429688 245.988281 Z M 108.429688 245.988281 " fill-opacity="1" fill-rule="nonzero"/><path fill="#253036" d="M 110.476562 246.273438 C 109.761719 246.023438 109.132812 246 108.558594 246.265625 C 108.054688 246.503906 107.746094 246.734375 107.535156 246.964844 C 107.324219 247.195312 107.195312 247.445312 107.0625 247.753906 C 107.027344 247.832031 106.992188 247.917969 106.953125 248.007812 C 106.714844 248.589844 106.414062 249.316406 105.589844 250.207031 C 104.679688 251.1875 103.792969 251.527344 102.925781 251.460938 C 102.085938 251.398438 101.320312 250.957031 100.644531 250.507812 C 100.480469 250.398438 100.328125 250.292969 100.179688 250.191406 C 100.007812 250.074219 99.839844 249.960938 99.660156 249.84375 C 99.347656 249.636719 99.054688 249.46875 98.773438 249.359375 C 98.496094 249.25 98.246094 249.207031 98.015625 249.238281 C 97.785156 249.269531 97.546875 249.375 97.292969 249.617188 C 97.167969 249.734375 96.976562 249.726562 96.859375 249.605469 C 96.742188 249.480469 96.746094 249.285156 96.871094 249.171875 C 97.203125 248.855469 97.558594 248.679688 97.929688 248.628906 C 98.300781 248.578125 98.65625 248.652344 98.996094 248.785156 C 99.335938 248.917969 99.671875 249.117188 99.996094 249.328125 C 100.167969 249.441406 100.355469 249.570312 100.539062 249.695312 C 100.691406 249.800781 100.84375 249.90625 100.984375 249.996094 C 101.65625 250.441406 102.304688 250.800781 102.972656 250.851562 C 103.609375 250.898438 104.324219 250.664062 105.136719 249.789062 C 105.882812 248.980469 106.148438 248.347656 106.386719 247.773438 C 106.421875 247.683594 106.460938 247.597656 106.496094 247.507812 C 106.640625 247.179688 106.804688 246.855469 107.082031 246.550781 C 107.363281 246.242188 107.742188 245.96875 108.300781 245.710938 C 109.066406 245.355469 109.867188 245.410156 110.679688 245.695312 C 111.488281 245.980469 112.332031 246.5 113.207031 247.117188 C 113.734375 247.488281 114.277344 247.902344 114.839844 248.324219 C 114.945312 248.40625 115.050781 248.484375 115.15625 248.5625 C 115.597656 248.898438 116.050781 249.234375 116.515625 249.566406 L 116.714844 249.707031 M 115.984375 249.941406 C 115.625 249.679688 115.269531 249.417969 114.921875 249.15625 C 114.882812 249.171875 114.839844 249.183594 114.796875 249.199219 C 114.742188 249.21875 114.679688 249.238281 114.613281 249.257812 L 114.589844 249.265625 C 114.515625 249.289062 114.433594 249.316406 114.347656 249.34375 C 114.003906 249.457031 113.585938 249.601562 113.167969 249.78125 C 112.75 249.964844 112.339844 250.175781 112.007812 250.421875 C 111.671875 250.667969 111.441406 250.933594 111.34375 251.207031 C 111.285156 251.367188 111.109375 251.449219 110.949219 251.390625 C 110.789062 251.332031 110.707031 251.15625 110.765625 250.996094 C 110.925781 250.5625 111.261719 250.210938 111.640625 249.929688 C 112.027344 249.644531 112.484375 249.410156 112.925781 249.21875 C 113.367188 249.027344 113.808594 248.875 114.15625 248.761719 C 114.214844 248.742188 114.273438 248.722656 114.324219 248.707031 C 113.867188 248.359375 113.421875 248.023438 112.992188 247.71875 C 112.976562 247.726562 112.957031 247.734375 112.9375 247.742188 C 112.605469 247.882812 112.015625 248.132812 111.394531 248.464844 C 110.996094 248.679688 110.59375 248.925781 110.257812 249.183594 C 109.921875 249.449219 109.675781 249.710938 109.554688 249.953125 C 109.476562 250.105469 109.292969 250.167969 109.140625 250.09375 C 108.988281 250.015625 108.929688 249.832031 109.003906 249.679688 C 109.183594 249.3125 109.515625 248.984375 109.882812 248.699219 C 110.253906 248.410156 110.6875 248.148438 111.105469 247.925781 C 111.578125 247.671875 112.050781 247.457031 112.394531 247.304688 C 111.710938 246.84375 111.070312 246.484375 110.476562 246.273438 M 116.535156 250.335938 C 116.363281 250.445312 116.144531 250.554688 115.925781 250.660156 C 115.851562 250.699219 115.773438 250.734375 115.695312 250.773438 C 115.425781 250.902344 115.132812 251.042969 114.84375 251.203125 C 114.46875 251.402344 114.113281 251.628906 113.820312 251.878906 C 113.527344 252.128906 113.3125 252.398438 113.210938 252.683594 C 113.152344 252.84375 112.976562 252.925781 112.816406 252.867188 C 112.65625 252.808594 112.574219 252.632812 112.632812 252.472656 C 112.785156 252.054688 113.082031 251.703125 113.417969 251.414062 C 113.757812 251.121094 114.160156 250.871094 114.550781 250.660156 C 114.855469 250.496094 115.164062 250.347656 115.4375 250.214844 C 115.511719 250.179688 115.585938 250.144531 115.65625 250.109375 C 115.78125 250.046875 115.890625 249.992188 115.984375 249.941406 M 116.535156 250.335938 C 117.019531 250.679688 117.53125 251.039062 118.054688 251.394531 C 117.523438 251.566406 116.890625 251.808594 116.308594 252.101562 C 115.886719 252.3125 115.480469 252.554688 115.148438 252.824219 C 114.820312 253.089844 114.539062 253.398438 114.410156 253.757812 C 114.351562 253.917969 114.433594 254.09375 114.59375 254.152344 C 114.75 254.210938 114.929688 254.128906 114.988281 253.96875 C 115.0625 253.761719 115.246094 253.535156 115.535156 253.300781 C 115.820312 253.070312 116.183594 252.851562 116.582031 252.652344 C 117.335938 252.273438 118.175781 251.984375 118.753906 251.824219 C 121 252.707031 123.78125 254.03125 125.753906 255.464844 C 126.761719 256.195312 127.527344 256.933594 127.921875 257.628906 C 128.117188 257.972656 128.214844 258.296875 128.214844 258.59375 C 128.214844 258.886719 128.125 259.179688 127.902344 259.472656 C 127.800781 259.609375 127.828125 259.800781 127.964844 259.902344 C 128.101562 260.003906 128.292969 259.976562 128.394531 259.839844 C 128.6875 259.449219 128.832031 259.03125 128.828125 258.59375 C 128.828125 258.160156 128.6875 257.734375 128.457031 257.328125 C 127.996094 256.515625 127.144531 255.714844 126.117188 254.96875 C 124.0625 253.476562 121.191406 252.117188 118.910156 251.226562 M 97.816406 256.625 C 97.832031 256.453125 97.980469 256.332031 98.148438 256.34375 C 101.566406 256.660156 106.722656 257 111.878906 257.109375 C 117.039062 257.210938 122.175781 257.078125 125.574219 256.441406 C 125.742188 256.410156 125.902344 256.523438 125.933594 256.6875 C 125.964844 256.855469 125.855469 257.015625 125.6875 257.046875 C 122.222656 257.695312 117.03125 257.828125 111.863281 257.722656 C 106.691406 257.617188 101.523438 257.269531 98.09375 256.957031 C 97.921875 256.941406 97.800781 256.792969 97.816406 256.625 Z M 97.816406 256.625 " fill-opacity="1" fill-rule="evenodd"/><path fill="#fcbfbc" d="M 73.964844 253.890625 C 75.578125 252.234375 76.367188 242.925781 76.089844 238.753906 L 88.027344 238.4375 C 88.058594 238.734375 86.25 249.023438 90.558594 250.359375 C 87.445312 254.734375 77.089844 254.355469 73.964844 253.890625 Z M 73.964844 253.890625 " fill-opacity="1" fill-rule="nonzero"/><path fill="#759df5" d="M 86.445312 245.988281 C 84.320312 246.976562 85.191406 248.039062 83.375 249.996094 C 79.9375 253.710938 77.449219 247.167969 75.097656 249.394531 C 73.625 250.78125 74.230469 257.652344 74.960938 261.066406 C 80.855469 261.683594 92.128906 262.019531 99.769531 261.636719 C 102.066406 261.523438 104.785156 261.492188 106.164062 259.65625 C 108.214844 256.921875 101.332031 253.269531 96.785156 251.5 C 96 250.984375 95.246094 250.457031 94.546875 249.957031 L 94.351562 249.816406 C 93.882812 249.484375 93.429688 249.144531 92.984375 248.808594 C 92.308594 248.300781 91.664062 247.804688 91.042969 247.367188 C 89.304688 246.140625 87.78125 245.367188 86.445312 245.988281 Z M 86.445312 245.988281 " fill-opacity="1" fill-rule="nonzero"/><path fill="#253036" d="M 88.492188 246.273438 C 87.773438 246.023438 87.148438 246 86.574219 246.265625 C 86.070312 246.503906 85.761719 246.734375 85.550781 246.964844 C 85.339844 247.195312 85.207031 247.445312 85.074219 247.753906 C 85.039062 247.832031 85.003906 247.917969 84.96875 248.007812 C 84.726562 248.589844 84.425781 249.316406 83.601562 250.207031 C 82.695312 251.1875 81.808594 251.527344 80.941406 251.460938 C 80.101562 251.398438 79.335938 250.957031 78.660156 250.507812 C 78.492188 250.398438 78.339844 250.292969 78.191406 250.191406 C 78.019531 250.074219 77.855469 249.960938 77.675781 249.84375 C 77.359375 249.636719 77.066406 249.46875 76.789062 249.359375 C 76.507812 249.25 76.261719 249.207031 76.027344 249.238281 C 75.800781 249.269531 75.5625 249.375 75.308594 249.617188 C 75.183594 249.734375 74.988281 249.726562 74.871094 249.605469 C 74.757812 249.480469 74.761719 249.285156 74.886719 249.171875 C 75.21875 248.855469 75.574219 248.679688 75.945312 248.628906 C 76.3125 248.578125 76.671875 248.652344 77.011719 248.785156 C 77.351562 248.917969 77.683594 249.117188 78.011719 249.328125 C 78.183594 249.441406 78.371094 249.570312 78.554688 249.695312 C 78.707031 249.800781 78.859375 249.90625 79 249.996094 C 79.671875 250.441406 80.316406 250.800781 80.984375 250.851562 C 81.625 250.898438 82.339844 250.664062 83.152344 249.789062 C 83.898438 248.980469 84.160156 248.347656 84.398438 247.773438 C 84.4375 247.683594 84.476562 247.597656 84.511719 247.507812 C 84.65625 247.179688 84.816406 246.855469 85.097656 246.550781 C 85.375 246.242188 85.757812 245.96875 86.316406 245.710938 C 87.078125 245.355469 87.882812 245.410156 88.695312 245.695312 C 89.503906 245.980469 90.347656 246.5 91.21875 247.117188 C 91.746094 247.488281 92.292969 247.902344 92.855469 248.324219 C 92.960938 248.40625 93.066406 248.484375 93.171875 248.5625 C 93.613281 248.898438 94.066406 249.234375 94.527344 249.566406 L 94.726562 249.707031 M 94 249.941406 C 93.636719 249.679688 93.28125 249.417969 92.9375 249.15625 C 92.898438 249.171875 92.855469 249.183594 92.8125 249.199219 C 92.757812 249.21875 92.695312 249.238281 92.628906 249.257812 L 92.605469 249.265625 C 92.53125 249.289062 92.449219 249.316406 92.363281 249.34375 C 92.019531 249.457031 91.601562 249.601562 91.183594 249.78125 C 90.761719 249.964844 90.351562 250.175781 90.023438 250.421875 C 89.6875 250.667969 89.457031 250.933594 89.355469 251.207031 C 89.300781 251.367188 89.121094 251.449219 88.964844 251.390625 C 88.804688 251.332031 88.722656 251.15625 88.78125 250.996094 C 88.9375 250.5625 89.273438 250.210938 89.65625 249.929688 C 90.039062 249.644531 90.5 249.410156 90.941406 249.21875 C 91.382812 249.027344 91.820312 248.875 92.171875 248.761719 C 92.230469 248.742188 92.285156 248.722656 92.339844 248.707031 C 91.878906 248.359375 91.4375 248.023438 91.007812 247.71875 C 90.988281 247.726562 90.96875 247.734375 90.949219 247.742188 C 90.621094 247.882812 90.03125 248.132812 89.410156 248.464844 C 89.007812 248.679688 88.605469 248.925781 88.273438 249.183594 C 87.933594 249.449219 87.6875 249.710938 87.566406 249.953125 C 87.492188 250.105469 87.308594 250.167969 87.15625 250.09375 C 87.003906 250.015625 86.941406 249.832031 87.015625 249.679688 C 87.199219 249.3125 87.53125 248.984375 87.898438 248.699219 C 88.269531 248.410156 88.703125 248.148438 89.117188 247.925781 C 89.59375 247.671875 90.066406 247.457031 90.410156 247.304688 C 89.722656 246.84375 89.085938 246.484375 88.492188 246.273438 M 94.550781 250.335938 C 94.375 250.445312 94.160156 250.554688 93.9375 250.660156 C 93.863281 250.699219 93.789062 250.734375 93.710938 250.773438 C 93.4375 250.902344 93.148438 251.042969 92.859375 251.203125 C 92.484375 251.402344 92.125 251.628906 91.832031 251.878906 C 91.539062 252.128906 91.328125 252.398438 91.222656 252.683594 C 91.164062 252.84375 90.988281 252.925781 90.832031 252.867188 C 90.671875 252.808594 90.589844 252.632812 90.648438 252.472656 C 90.800781 252.054688 91.09375 251.703125 91.433594 251.414062 C 91.773438 251.121094 92.175781 250.871094 92.566406 250.660156 C 92.871094 250.496094 93.179688 250.347656 93.453125 250.214844 C 93.527344 250.179688 93.601562 250.144531 93.667969 250.109375 C 93.796875 250.046875 93.90625 249.992188 94 249.941406 M 94.550781 250.335938 C 95.03125 250.679688 95.542969 251.039062 96.070312 251.394531 C 95.535156 251.566406 94.90625 251.808594 94.320312 252.101562 C 93.902344 252.3125 93.496094 252.554688 93.164062 252.824219 C 92.835938 253.089844 92.554688 253.398438 92.425781 253.757812 C 92.367188 253.917969 92.445312 254.09375 92.605469 254.152344 C 92.765625 254.210938 92.941406 254.128906 93 253.96875 C 93.074219 253.761719 93.257812 253.535156 93.550781 253.300781 C 93.835938 253.070312 94.199219 252.851562 94.597656 252.652344 C 95.347656 252.273438 96.191406 251.984375 96.765625 251.824219 C 99.015625 252.707031 101.792969 254.03125 103.769531 255.464844 C 104.773438 256.195312 105.542969 256.933594 105.9375 257.628906 C 106.132812 257.972656 106.230469 258.296875 106.230469 258.59375 C 106.230469 258.886719 106.136719 259.179688 105.917969 259.472656 C 105.816406 259.609375 105.84375 259.800781 105.980469 259.902344 C 106.117188 260.003906 106.308594 259.976562 106.410156 259.839844 C 106.703125 259.449219 106.84375 259.03125 106.84375 258.59375 C 106.84375 258.160156 106.703125 257.734375 106.472656 257.328125 C 106.011719 256.515625 105.15625 255.714844 104.128906 254.96875 C 102.074219 253.476562 99.207031 252.117188 96.925781 251.226562 M 75.828125 256.625 C 75.84375 256.453125 75.992188 256.332031 76.164062 256.34375 C 79.582031 256.660156 84.734375 257 89.890625 257.109375 C 95.054688 257.210938 100.191406 257.078125 103.589844 256.441406 C 103.757812 256.410156 103.917969 256.523438 103.949219 256.6875 C 103.980469 256.855469 103.871094 257.015625 103.703125 257.046875 C 100.238281 257.695312 95.042969 257.828125 89.878906 257.722656 C 84.707031 257.617188 79.539062 257.269531 76.105469 256.957031 C 75.9375 256.941406 75.8125 256.792969 75.828125 256.625 Z M 75.828125 256.625 " fill-opacity="1" fill-rule="evenodd"/><path fill="#fcbfbc" d="M 98.945312 47.308594 C 103.59375 45.503906 103.804688 37.378906 103.332031 33.542969 C 103.984375 35.175781 108.328125 43.097656 114.714844 43.207031 C 114.742188 44.1875 114.90625 45.996094 115.324219 47.382812 C 115.621094 48.363281 115.898438 49.46875 115.414062 50.367188 C 112.269531 56.210938 103.316406 50.949219 98.945312 47.308594 Z M 98.945312 47.308594 " fill-opacity="1" fill-rule="nonzero"/><path fill="#fcbfbc" d="M 105.464844 27.371094 C 113.046875 26.539062 115.535156 21.058594 115.878906 18.21875 C 117.585938 18.699219 121.09375 20.539062 121.476562 24.050781 C 121.949219 28.441406 123.847656 41.492188 116.496094 43.035156 C 115.886719 43.164062 115.292969 43.21875 114.714844 43.207031 C 108.328125 43.097656 103.984375 35.175781 103.332031 33.542969 C 99.535156 31.761719 99.179688 27.730469 100.601562 26.304688 C 101.742188 25.164062 104.320312 26.542969 105.464844 27.371094 Z M 105.464844 27.371094 " fill-opacity="1" fill-rule="nonzero"/><path fill="#253036" d="M 115.304688 37.726562 C 115.167969 37.828125 115.140625 38.019531 115.238281 38.15625 C 115.769531 38.886719 116.566406 38.984375 117.207031 38.859375 C 117.53125 38.796875 117.824219 38.675781 118.0625 38.539062 C 118.179688 38.472656 118.285156 38.394531 118.371094 38.316406 C 118.457031 38.242188 118.539062 38.148438 118.589844 38.042969 C 118.664062 37.890625 118.597656 37.707031 118.445312 37.632812 C 118.292969 37.5625 118.109375 37.625 118.035156 37.78125 C 118.035156 37.78125 118.03125 37.789062 118.019531 37.800781 C 118.007812 37.816406 117.988281 37.835938 117.964844 37.859375 C 117.910156 37.90625 117.839844 37.957031 117.753906 38.007812 C 117.574219 38.113281 117.339844 38.207031 117.089844 38.253906 C 116.589844 38.351562 116.078125 38.261719 115.734375 37.792969 C 115.636719 37.65625 115.441406 37.628906 115.304688 37.726562 Z M 115.304688 37.726562 " fill-opacity="1" fill-rule="evenodd"/><path fill="#253036" d="M 101.621094 27.855469 C 101.683594 27.695312 101.863281 27.617188 102.019531 27.679688 C 102.410156 27.832031 102.984375 28.148438 103.476562 28.617188 C 103.972656 29.089844 104.414062 29.742188 104.46875 30.554688 C 104.480469 30.726562 104.351562 30.871094 104.183594 30.882812 C 104.011719 30.894531 103.867188 30.765625 103.855469 30.597656 C 103.816406 29.988281 103.484375 29.472656 103.054688 29.0625 C 102.625 28.65625 102.121094 28.378906 101.796875 28.253906 C 101.640625 28.191406 101.5625 28.011719 101.621094 27.855469 Z M 103.21875 33.257812 C 103.375 33.195312 103.554688 33.269531 103.617188 33.429688 C 103.929688 34.214844 105.160156 36.570312 107.101562 38.742188 C 109.046875 40.914062 111.65625 42.847656 114.722656 42.898438 C 114.890625 42.902344 115.027344 43.042969 115.023438 43.210938 C 115.019531 43.382812 114.882812 43.515625 114.710938 43.515625 C 111.390625 43.457031 108.632812 41.371094 106.644531 39.152344 C 104.652344 36.925781 103.386719 34.503906 103.046875 33.65625 C 102.984375 33.5 103.058594 33.320312 103.21875 33.257812 Z M 103.21875 33.257812 " fill-opacity="1" fill-rule="evenodd"/><path fill="#253036" d="M 105.464844 27.371094 C 113.046875 26.539062 115.535156 21.058594 115.878906 18.21875 C 117.585938 18.699219 121.097656 20.539062 121.476562 24.050781 C 121.949219 28.441406 123.847656 41.492188 116.496094 43.035156 C 115.886719 43.164062 115.292969 43.21875 114.714844 43.207031 C 114.746094 44.21875 114.917969 46.105469 115.363281 47.507812 C 118.992188 49.242188 122.449219 52.921875 123.8125 54.964844 C 124.429688 55.894531 125.296875 57.746094 126.199219 59.953125 L 129.363281 54.917969 C 131.203125 51.261719 129.351562 48.050781 127.050781 45.171875 C 124.679688 42.207031 126.929688 40.304688 128 36.984375 C 129.066406 33.660156 126.8125 30.933594 125.269531 28.796875 C 123.730469 26.660156 124.203125 24.050781 123.730469 18 C 123.351562 13.15625 115.824219 10.996094 112.105469 10.523438 C 107.878906 10.085938 98.917969 11.28125 96.925781 19.539062 C 95.386719 26.304688 97.78125 26.914062 92.660156 28.558594 C 86.375 30.578125 92.660156 35.917969 88.507812 39 C 86.097656 40.980469 82.722656 46.167969 88.507812 51.105469 L 98.945312 47.308594 C 103.59375 45.503906 103.804688 37.378906 103.332031 33.542969 C 99.535156 31.761719 99.179688 27.730469 100.605469 26.304688 C 101.742188 25.164062 104.320312 26.542969 105.464844 27.371094 Z M 105.464844 27.371094 " fill-opacity="1" fill-rule="nonzero"/><path fill="#253036" d="M 111.097656 27.082031 C 110.597656 27.839844 110.277344 28.90625 110.277344 30.101562 C 110.277344 31.296875 110.597656 32.363281 111.097656 33.121094 C 111.597656 33.882812 112.253906 34.304688 112.9375 34.304688 C 113.617188 34.304688 114.273438 33.882812 114.777344 33.121094 C 115.273438 32.363281 115.59375 31.296875 115.59375 30.101562 C 115.59375 28.90625 115.273438 27.839844 114.777344 27.082031 C 114.273438 26.320312 113.617188 25.898438 112.9375 25.898438 C 112.253906 25.898438 111.597656 26.320312 111.097656 27.082031 Z M 110.582031 26.746094 C 111.15625 25.875 111.980469 25.285156 112.9375 25.285156 C 113.890625 25.285156 114.71875 25.875 115.289062 26.746094 C 115.796875 27.519531 116.128906 28.539062 116.195312 29.667969 C 116.382812 29.609375 116.59375 29.5625 116.804688 29.542969 C 117.023438 29.523438 117.269531 29.527344 117.503906 29.59375 C 117.5625 28.613281 117.839844 27.726562 118.269531 27.050781 C 118.753906 26.289062 119.460938 25.761719 120.289062 25.761719 C 121.117188 25.761719 121.824219 26.289062 122.308594 27.050781 C 122.796875 27.8125 123.085938 28.851562 123.085938 29.984375 C 123.085938 31.113281 122.796875 32.152344 122.308594 32.917969 C 121.824219 33.679688 121.117188 34.207031 120.289062 34.207031 C 119.476562 34.207031 118.777344 33.699219 118.296875 32.957031 C 117.832031 32.25 117.539062 31.296875 117.496094 30.25 C 117.351562 30.164062 117.136719 30.128906 116.867188 30.15625 C 116.628906 30.179688 116.390625 30.242188 116.203125 30.308594 C 116.171875 31.523438 115.832031 32.632812 115.289062 33.460938 C 114.71875 34.328125 113.890625 34.917969 112.9375 34.917969 C 111.980469 34.917969 111.15625 34.328125 110.582031 33.460938 C 110.007812 32.585938 109.664062 31.398438 109.664062 30.101562 C 109.664062 28.804688 110.007812 27.617188 110.582031 26.746094 Z M 118.785156 27.378906 C 118.371094 28.03125 118.105469 28.953125 118.105469 29.984375 C 118.105469 30.019531 118.105469 30.058594 118.105469 30.097656 C 118.125 31.101562 118.398438 31.992188 118.808594 32.621094 C 119.222656 33.253906 119.753906 33.589844 120.289062 33.589844 C 120.835938 33.589844 121.375 33.242188 121.789062 32.585938 C 122.207031 31.933594 122.472656 31.015625 122.472656 29.984375 C 122.472656 28.953125 122.207031 28.03125 121.789062 27.378906 C 121.375 26.722656 120.835938 26.375 120.289062 26.375 C 119.742188 26.375 119.203125 26.722656 118.785156 27.378906 Z M 118.785156 27.378906 " fill-opacity="1" fill-rule="evenodd"/><path fill="#253036" d="M 115.191406 29.507812 C 115.191406 30.097656 114.871094 30.578125 114.480469 30.578125 C 114.085938 30.578125 113.765625 30.097656 113.765625 29.507812 C 113.765625 28.917969 114.085938 28.441406 114.480469 28.441406 C 114.871094 28.441406 115.191406 28.917969 115.191406 29.507812 Z M 115.191406 29.507812 " fill-opacity="1" fill-rule="nonzero"/><path fill="#253036" d="M 121.59375 29.746094 C 121.59375 30.335938 121.273438 30.8125 120.882812 30.8125 C 120.488281 30.8125 120.171875 30.335938 120.171875 29.746094 C 120.171875 29.15625 120.488281 28.679688 120.882812 28.679688 C 121.273438 28.679688 121.59375 29.15625 121.59375 29.746094 Z M 121.59375 29.746094 " fill-opacity="1" fill-rule="nonzero"/><path fill="#253036" d="M 110.171875 28.269531 L 105.425781 27.675781 L 105.503906 27.066406 L 110.246094 27.660156 Z M 110.171875 28.269531 " fill-opacity="1" fill-rule="evenodd"/><path fill="#fcbfbc" d="M 81.742188 81.15625 C 82.496094 80.65625 84.257812 79.585938 87.710938 73.613281 C 85.09375 73.089844 79.355469 71.792969 77.347656 70.785156 C 75.148438 73.929688 73.554688 75.816406 72.636719 81.785156 C 72.027344 85.738281 71.714844 110.847656 72.546875 117.613281 C 72.066406 119.726562 70.988281 120.433594 70.988281 125.960938 C 70.988281 129.699219 73.09375 130.878906 72.832031 129.035156 C 73.050781 130.570312 73.582031 131.636719 74.316406 131.894531 C 74.75 132.050781 75.023438 131.324219 74.976562 130.871094 C 74.894531 130.113281 74.933594 129.027344 74.960938 128.003906 C 75.46875 133.261719 78.492188 132.222656 77.4375 131.183594 C 76.433594 130.203125 77.019531 124.835938 77.4375 122.273438 C 78.050781 124.425781 79.035156 126.882812 80.8125 126.882812 C 81.066406 124.117188 79.394531 119.5 78.6875 118.242188 C 81.152344 91.214844 82.675781 91.101562 81.742188 81.15625 Z M 81.742188 81.15625 " fill-opacity="1" fill-rule="nonzero"/><path fill="#253036" d="M 117.839844 177.425781 C 120.617188 161.238281 123.550781 125.320312 123.832031 113.527344 C 116.46875 118.453125 98.519531 125.34375 85.621094 113.527344 C 81.1875 119.550781 79.082031 128.828125 79.023438 136.394531 C 77.574219 148.292969 79.023438 159.316406 79.023438 181.574219 C 75.113281 198.382812 76.367188 207.355469 75.425781 240.667969 C 79.445312 242.929688 85.792969 241.925781 88.304688 240.667969 C 91.128906 221.183594 94.390625 192.316406 94.390625 181.574219 C 94.207031 180.265625 96.5 165.527344 98.621094 153.222656 C 98.449219 161.6875 98.296875 171.882812 100.277344 182.039062 C 96.785156 196.183594 98.667969 204.527344 97.097656 240.667969 C 100.363281 242.425781 107.148438 241.714844 110.605469 241.296875 C 112.660156 225.761719 115.757812 203.046875 116.707031 186.75 C 116.886719 183.621094 117.308594 180.515625 117.839844 177.425781 Z M 117.839844 177.425781 " fill-opacity="1" fill-rule="nonzero"/><path fill="#f2f2f2" d="M 108.433594 131.210938 C 108.339844 131.066406 108.152344 131.023438 108.007812 131.113281 C 107.113281 131.675781 105.730469 132.601562 104.46875 133.554688 C 103.839844 134.03125 103.238281 134.519531 102.746094 134.976562 C 102.257812 135.425781 101.851562 135.863281 101.640625 136.242188 C 101.570312 136.367188 101.496094 136.597656 101.421875 136.878906 C 101.339844 137.171875 101.246094 137.558594 101.140625 138.027344 C 100.929688 138.964844 100.671875 140.238281 100.375 141.757812 C 99.789062 144.796875 99.0625 148.832031 98.316406 153.171875 C 98.289062 153.335938 98.398438 153.496094 98.566406 153.527344 C 98.734375 153.554688 98.894531 153.441406 98.921875 153.273438 C 99.667969 148.9375 100.394531 144.90625 100.980469 141.875 C 101.273438 140.355469 101.53125 139.089844 101.738281 138.164062 C 101.84375 137.699219 101.933594 137.320312 102.011719 137.039062 C 102.09375 136.746094 102.148438 136.589844 102.175781 136.542969 C 102.339844 136.253906 102.679688 135.871094 103.164062 135.425781 C 103.636719 134.988281 104.21875 134.515625 104.839844 134.046875 C 106.082031 133.105469 107.453125 132.1875 108.335938 131.632812 C 108.476562 131.542969 108.523438 131.355469 108.433594 131.210938 Z M 108.433594 131.210938 " fill-opacity="1" fill-rule="evenodd"/><path fill="#3e77f4" d="M 138.90625 74.871094 C 126.972656 48.789062 127.566406 51.617188 115.316406 47.53125 C 110.222656 53.550781 104.308594 50.257812 100.238281 46.585938 C 94.257812 48.472656 85.742188 49.566406 82.371094 54.757812 C 79.878906 58.597656 74.996094 66.429688 72.949219 73.300781 C 74.3125 75.082031 80.273438 78.832031 84.886719 79.585938 C 85.585938 78.621094 86.359375 77.511719 87.128906 76.332031 C 88.511719 87.199219 86.398438 102.976562 82.371094 115.726562 C 104.984375 128.046875 121.109375 120.023438 124.773438 113.527344 C 121.632812 100.015625 120.0625 88.070312 121.945312 75.8125 C 121.957031 75.796875 121.96875 75.78125 121.976562 75.761719 C 123.046875 78.171875 124.234375 80.675781 125.089844 82.101562 C 130.78125 82.730469 137.5625 76.121094 138.90625 74.871094 Z M 138.90625 74.871094 " fill-opacity="1" fill-rule="nonzero"/><path fill="#253036" d="M 115.023438 47.433594 C 114.96875 47.59375 115.058594 47.769531 115.21875 47.820312 C 116.53125 48.257812 117.6875 48.613281 118.722656 48.933594 C 120.128906 49.367188 121.316406 49.734375 122.378906 50.144531 C 124.203125 50.847656 125.605469 51.671875 127.003906 53.160156 C 128.414062 54.664062 129.824219 56.851562 131.636719 60.3125 C 133.445312 63.769531 135.644531 68.476562 138.628906 75 C 138.699219 75.15625 138.882812 75.222656 139.035156 75.152344 C 139.191406 75.082031 139.257812 74.898438 139.1875 74.742188 C 136.203125 68.222656 134 63.503906 132.179688 60.027344 C 130.363281 56.554688 128.921875 54.304688 127.453125 52.742188 C 125.976562 51.167969 124.488281 50.300781 122.601562 49.570312 C 121.523438 49.15625 120.300781 48.777344 118.871094 48.335938 C 117.832031 48.015625 116.6875 47.664062 115.410156 47.238281 C 115.25 47.183594 115.078125 47.273438 115.023438 47.433594 Z M 119.171875 54.601562 C 119.082031 54.746094 119.132812 54.933594 119.277344 55.023438 C 119.992188 55.453125 120.824219 56.417969 121.589844 57.800781 C 122.351562 59.171875 123.027344 60.921875 123.453125 62.878906 C 124.304688 66.792969 124.144531 71.5 121.683594 75.660156 L 121.652344 75.710938 L 121.644531 75.769531 C 119.75 88.082031 121.332031 100.070312 124.476562 113.597656 C 124.511719 113.761719 124.679688 113.867188 124.84375 113.828125 C 125.007812 113.789062 125.113281 113.625 125.074219 113.457031 C 121.941406 99.980469 120.378906 88.101562 122.242188 75.921875 C 124.773438 71.605469 124.925781 66.75 124.054688 62.746094 C 123.613281 60.734375 122.917969 58.929688 122.128906 57.503906 C 121.339844 56.082031 120.445312 55.007812 119.59375 54.496094 C 119.445312 54.40625 119.257812 54.453125 119.171875 54.601562 Z M 91.871094 66.71875 C 91.703125 66.675781 91.539062 66.777344 91.496094 66.941406 C 91.035156 68.785156 89.953125 71.03125 88.664062 73.265625 C 87.410156 75.425781 85.976562 77.550781 84.746094 79.25 C 82.535156 78.851562 80.007812 77.773438 77.847656 76.558594 C 76.742188 75.9375 75.734375 75.285156 74.925781 74.683594 C 74.109375 74.074219 73.507812 73.523438 73.195312 73.113281 C 73.089844 72.980469 72.898438 72.953125 72.761719 73.058594 C 72.628906 73.160156 72.601562 73.351562 72.707031 73.488281 C 73.074219 73.96875 73.730469 74.554688 74.558594 75.175781 C 75.390625 75.796875 76.421875 76.464844 77.550781 77.097656 C 79.800781 78.359375 82.480469 79.503906 84.835938 79.890625 L 85.023438 79.921875 L 85.132812 79.765625 C 86.394531 78.03125 87.890625 75.824219 89.195312 73.570312 C 90.492188 71.328125 91.609375 69.019531 92.09375 67.089844 C 92.132812 66.925781 92.035156 66.757812 91.871094 66.71875 Z M 91.871094 66.71875 " fill-opacity="1" fill-rule="evenodd"/><path fill="#fcbfbc" d="M 140.476562 82.101562 C 140.226562 81.09375 137.964844 78.03125 137.335938 76.308594 C 135.046875 78.320312 130.921875 81.53125 126.972656 82.066406 C 127.707031 84.429688 129.363281 88.171875 133.253906 90.1875 C 139.457031 93.394531 144.15625 95.519531 165.25 100.769531 C 166.886719 102.101562 167.398438 107.222656 173.234375 104.148438 C 176.304688 104.148438 181.859375 100.800781 180.292969 99.234375 C 179.679688 98.617188 180.292969 94.011719 168.628906 94.933594 C 156.960938 89.402344 148.667969 83.566406 140.476562 82.101562 Z M 140.476562 82.101562 " fill-opacity="1" fill-rule="nonzero"/><path fill="#fcbfbc" d="M 240.132812 244.929688 L 237.816406 235.386719 C 241.867188 235.191406 248.867188 235.617188 249.101562 235.386719 C 249.332031 235.15625 250.355469 238.945312 250.835938 240.875 C 247.597656 248.519531 242.058594 246.761719 240.132812 244.929688 Z M 240.132812 244.929688 " fill-opacity="1" fill-rule="nonzero"/><g clip-path="url(#ed102d94c0)"><path fill="#759df5" d="M 240.144531 243.476562 C 242.402344 243.078125 242.296875 244.417969 244.847656 244.964844 C 249.683594 246.007812 248.007812 239.375 251.140625 239.835938 C 253.09375 240.121094 256.460938 245.964844 257.789062 249.105469 C 255.078125 251.464844 250.652344 254.890625 246.171875 258.105469 C 243.386719 260.105469 243.933594 261.226562 232.507812 261.691406 C 232.066406 261.707031 231.605469 261.726562 231.128906 261.742188 C 223.894531 261.984375 231.128906 255.089844 234.953125 253.691406 C 235.292969 252.839844 235.601562 251.992188 235.878906 251.203125 L 235.960938 250.976562 C 236.144531 250.449219 236.320312 249.921875 236.488281 249.40625 C 236.742188 248.617188 236.984375 247.859375 237.234375 247.160156 C 237.941406 245.203125 238.726562 243.730469 240.144531 243.476562 Z M 240.144531 243.476562 " fill-opacity="1" fill-rule="nonzero"/></g><path fill="#253036" d="M 238.671875 244.859375 C 239.105469 244.253906 239.59375 243.886719 240.199219 243.78125 C 240.734375 243.683594 241.109375 243.695312 241.40625 243.761719 C 241.707031 243.832031 241.949219 243.957031 242.226562 244.128906 C 242.300781 244.171875 242.375 244.21875 242.453125 244.269531 C 242.972656 244.601562 243.621094 245.015625 244.785156 245.265625 C 246.0625 245.542969 246.964844 245.316406 247.625 244.777344 C 248.265625 244.253906 248.628906 243.46875 248.917969 242.730469 C 248.992188 242.550781 249.054688 242.382812 249.113281 242.214844 C 249.1875 242.023438 249.253906 241.839844 249.332031 241.648438 C 249.472656 241.304688 249.609375 241.003906 249.773438 240.761719 C 249.933594 240.519531 250.109375 240.34375 250.308594 240.242188 C 250.507812 240.140625 250.757812 240.089844 251.097656 240.140625 C 251.265625 240.164062 251.417969 240.050781 251.445312 239.878906 C 251.46875 239.714844 251.355469 239.558594 251.183594 239.53125 C 250.742188 239.46875 250.359375 239.527344 250.03125 239.695312 C 249.703125 239.859375 249.457031 240.121094 249.261719 240.421875 C 249.0625 240.71875 248.90625 241.0625 248.765625 241.417969 C 248.6875 241.601562 248.609375 241.8125 248.535156 242.015625 C 248.472656 242.1875 248.40625 242.351562 248.347656 242.507812 C 248.058594 243.238281 247.742188 243.886719 247.238281 244.300781 C 246.753906 244.695312 246.054688 244.910156 244.914062 244.664062 C 243.863281 244.4375 243.300781 244.078125 242.785156 243.753906 C 242.707031 243.703125 242.625 243.652344 242.546875 243.605469 C 242.25 243.421875 241.9375 243.253906 241.539062 243.164062 C 241.144531 243.074219 240.683594 243.070312 240.089844 243.175781 C 239.277344 243.320312 238.664062 243.816406 238.171875 244.5 C 237.683594 245.183594 237.300781 246.074219 236.945312 247.058594 C 236.734375 247.648438 236.527344 248.285156 236.316406 248.941406 C 236.277344 249.0625 236.234375 249.1875 236.195312 249.3125 C 236.027344 249.824219 235.855469 250.351562 235.667969 250.875 L 235.589844 251.101562 C 235.324219 251.847656 235.035156 252.648438 234.71875 253.453125 C 233.300781 254.003906 231.503906 255.222656 230.097656 256.546875 C 229.371094 257.230469 228.738281 257.953125 228.308594 258.640625 C 227.890625 259.316406 227.632812 260.023438 227.765625 260.640625 C 227.804688 260.804688 227.96875 260.910156 228.132812 260.871094 C 228.296875 260.835938 228.402344 260.671875 228.367188 260.507812 C 228.285156 260.132812 228.433594 259.609375 228.832031 258.96875 C 229.222656 258.339844 229.816406 257.65625 230.519531 256.992188 C 231.929688 255.664062 233.726562 254.46875 235.058594 253.980469 C 235.609375 253.78125 236.492188 253.519531 237.351562 253.390625 C 237.78125 253.328125 238.195312 253.300781 238.554688 253.324219 C 238.914062 253.351562 239.1875 253.429688 239.363281 253.550781 C 239.503906 253.648438 239.695312 253.613281 239.789062 253.476562 C 239.886719 253.335938 239.855469 253.144531 239.714844 253.046875 C 239.410156 252.832031 239.007812 252.742188 238.597656 252.710938 C 238.179688 252.683594 237.71875 252.71875 237.261719 252.785156 C 236.636719 252.878906 236 253.035156 235.476562 253.195312 C 235.695312 252.621094 235.902344 252.054688 236.097656 251.511719 C 236.296875 251.503906 236.527344 251.46875 236.761719 251.429688 C 236.84375 251.417969 236.925781 251.40625 237.007812 251.390625 C 237.300781 251.34375 237.609375 251.292969 237.929688 251.257812 C 238.34375 251.207031 238.753906 251.1875 239.128906 251.222656 C 239.503906 251.261719 239.824219 251.355469 240.066406 251.523438 C 240.203125 251.621094 240.398438 251.589844 240.492188 251.449219 C 240.589844 251.308594 240.558594 251.117188 240.417969 251.023438 C 240.058594 250.769531 239.625 250.65625 239.191406 250.613281 C 238.753906 250.570312 238.292969 250.59375 237.863281 250.644531 C 237.523438 250.683594 237.195312 250.738281 236.902344 250.785156 C 236.820312 250.800781 236.742188 250.8125 236.667969 250.824219 C 236.539062 250.84375 236.421875 250.863281 236.320312 250.875 C 236.464844 250.464844 236.597656 250.058594 236.726562 249.664062 C 236.765625 249.652344 236.804688 249.640625 236.847656 249.625 C 236.902344 249.609375 236.964844 249.589844 237.027344 249.570312 L 237.050781 249.5625 C 237.125 249.542969 237.203125 249.515625 237.289062 249.492188 C 237.628906 249.386719 238.042969 249.269531 238.476562 249.179688 C 238.914062 249.089844 239.363281 249.03125 239.765625 249.039062 C 240.171875 249.050781 240.5 249.132812 240.734375 249.296875 C 240.871094 249.390625 241.0625 249.359375 241.160156 249.21875 C 241.257812 249.082031 241.222656 248.886719 241.085938 248.792969 C 240.714844 248.53125 240.246094 248.4375 239.78125 248.425781 C 239.3125 248.414062 238.816406 248.484375 238.351562 248.578125 C 237.890625 248.671875 237.453125 248.796875 237.109375 248.902344 C 237.058594 248.917969 237.007812 248.933594 236.957031 248.949219 C 237.128906 248.417969 237.296875 247.910156 237.464844 247.425781 C 237.484375 247.421875 237.503906 247.421875 237.523438 247.414062 C 237.867188 247.34375 238.476562 247.210938 239.160156 247.132812 C 239.601562 247.078125 240.058594 247.050781 240.472656 247.070312 C 240.890625 247.089844 241.230469 247.160156 241.464844 247.289062 C 241.613281 247.367188 241.800781 247.3125 241.882812 247.164062 C 241.960938 247.015625 241.90625 246.828125 241.757812 246.75 C 241.40625 246.554688 240.957031 246.476562 240.503906 246.457031 C 240.042969 246.433594 239.546875 246.464844 239.089844 246.519531 C 238.570312 246.582031 238.078125 246.675781 237.71875 246.746094 C 238.007812 246 238.316406 245.355469 238.671875 244.859375 Z M 254.605469 246.023438 C 254.492188 245.898438 254.296875 245.890625 254.171875 246.003906 C 251.839844 248.105469 249.917969 249.941406 248.261719 251.527344 C 248 251.773438 247.75 252.015625 247.503906 252.25 C 245.675781 253.992188 244.183594 255.390625 242.785156 256.472656 C 241.390625 257.554688 240.097656 258.320312 238.683594 258.796875 C 237.269531 259.273438 235.710938 259.46875 233.777344 259.398438 C 233.609375 259.390625 233.464844 259.523438 233.460938 259.691406 C 233.453125 259.863281 233.585938 260.003906 233.753906 260.011719 C 235.742188 260.085938 237.378906 259.882812 238.878906 259.378906 C 240.378906 258.871094 241.730469 258.070312 243.160156 256.960938 C 244.589844 255.855469 246.105469 254.433594 247.925781 252.695312 C 248.175781 252.460938 248.425781 252.21875 248.6875 251.96875 C 250.34375 250.386719 252.257812 248.554688 254.582031 246.460938 C 254.707031 246.347656 254.71875 246.152344 254.605469 246.023438 Z M 254.605469 246.023438 " fill-opacity="1" fill-rule="evenodd"/><path fill="#fcbfbc" d="M 210.742188 249.417969 C 209.039062 247.730469 209.402344 238.8125 209.4375 233.796875 L 196.847656 231.953125 C 196.847656 233.183594 197.910156 244.59375 193.46875 246.058594 C 196.773438 250.539062 207.507812 249.957031 210.742188 249.417969 Z M 210.742188 249.417969 " fill-opacity="1" fill-rule="nonzero"/><path fill="#759df5" d="M 198.957031 241.425781 C 201.179688 242.414062 200.296875 243.53125 202.210938 245.53125 C 205.847656 249.316406 208.308594 242.488281 210.789062 244.753906 C 212.339844 246.164062 211.839844 253.304688 211.140625 256.855469 C 205.039062 257.605469 193.351562 258.15625 185.417969 257.902344 C 183.035156 257.824219 180.214844 257.839844 178.75 255.960938 C 176.574219 253.164062 183.644531 249.25 188.332031 247.332031 C 189.136719 246.78125 189.910156 246.21875 190.625 245.691406 L 190.828125 245.542969 C 191.304688 245.1875 191.769531 244.824219 192.222656 244.472656 C 192.914062 243.929688 193.578125 243.40625 194.210938 242.941406 C 195.992188 241.636719 197.558594 240.808594 198.957031 241.425781 Z M 198.957031 241.425781 " fill-opacity="1" fill-rule="nonzero"/><path fill="#253036" d="M 196.835938 241.75 C 197.574219 241.476562 198.230469 241.441406 198.832031 241.707031 C 199.359375 241.945312 199.6875 242.175781 199.910156 242.414062 C 200.136719 242.652344 200.277344 242.914062 200.417969 243.226562 C 200.457031 243.3125 200.496094 243.398438 200.535156 243.488281 C 200.796875 244.089844 201.121094 244.835938 201.992188 245.742188 C 202.949219 246.742188 203.871094 247.078125 204.765625 246.996094 C 205.632812 246.914062 206.414062 246.441406 207.109375 245.964844 C 207.277344 245.847656 207.433594 245.738281 207.585938 245.628906 C 207.761719 245.503906 207.933594 245.378906 208.117188 245.257812 C 208.441406 245.039062 208.742188 244.855469 209.03125 244.738281 C 209.320312 244.617188 209.578125 244.570312 209.820312 244.597656 C 210.0625 244.625 210.3125 244.734375 210.582031 244.980469 L 210.996094 244.527344 C 210.648438 244.207031 210.277344 244.035156 209.894531 243.988281 C 209.515625 243.941406 209.144531 244.023438 208.796875 244.167969 C 208.449219 244.3125 208.105469 244.523438 207.773438 244.75 C 207.597656 244.867188 207.40625 245.003906 207.214844 245.140625 C 207.058594 245.25 206.90625 245.359375 206.757812 245.460938 C 206.070312 245.933594 205.402344 246.320312 204.710938 246.382812 C 204.042969 246.445312 203.292969 246.214844 202.433594 245.316406 C 201.640625 244.492188 201.359375 243.839844 201.101562 243.246094 C 201.058594 243.15625 201.019531 243.0625 200.980469 242.972656 C 200.824219 242.636719 200.652344 242.304688 200.355469 241.992188 C 200.0625 241.683594 199.664062 241.40625 199.082031 241.148438 C 198.289062 240.792969 197.457031 240.863281 196.621094 241.175781 C 195.789062 241.484375 194.925781 242.039062 194.03125 242.691406 C 193.492188 243.085938 192.933594 243.527344 192.359375 243.976562 C 192.25 244.058594 192.144531 244.144531 192.035156 244.230469 C 191.582031 244.582031 191.117188 244.941406 190.644531 245.292969 L 190.441406 245.445312 M 191.171875 245.667969 C 191.550781 245.386719 191.917969 245.097656 192.277344 244.820312 C 192.320312 244.832031 192.367188 244.847656 192.414062 244.863281 C 192.472656 244.878906 192.539062 244.898438 192.609375 244.921875 L 192.628906 244.925781 C 192.707031 244.953125 192.792969 244.976562 192.882812 245.003906 C 193.242188 245.117188 193.679688 245.257812 194.117188 245.4375 C 194.554688 245.617188 194.984375 245.832031 195.335938 246.082031 C 195.6875 246.332031 195.929688 246.601562 196.042969 246.886719 L 196.613281 246.667969 C 196.445312 246.222656 196.089844 245.867188 195.691406 245.582031 C 195.289062 245.292969 194.808594 245.058594 194.347656 244.867188 C 193.886719 244.679688 193.429688 244.53125 193.0625 244.417969 C 192.996094 244.394531 192.929688 244.375 192.867188 244.355469 C 193.347656 243.980469 193.808594 243.621094 194.253906 243.292969 C 194.273438 243.300781 194.296875 243.308594 194.320312 243.316406 C 194.664062 243.457031 195.28125 243.707031 195.933594 244.039062 C 196.351562 244.257812 196.773438 244.503906 197.125 244.765625 C 197.480469 245.035156 197.742188 245.300781 197.875 245.554688 L 198.417969 245.273438 C 198.226562 244.898438 197.878906 244.5625 197.492188 244.273438 C 197.105469 243.984375 196.648438 243.71875 196.214844 243.496094 C 195.707031 243.234375 195.207031 243.015625 194.84375 242.867188 C 195.554688 242.371094 196.214844 241.980469 196.835938 241.75 M 190.628906 246.070312 C 190.8125 246.179688 191.039062 246.292969 191.273438 246.398438 C 191.351562 246.4375 191.429688 246.472656 191.511719 246.511719 C 191.796875 246.640625 192.101562 246.78125 192.40625 246.941406 C 192.796875 247.144531 193.171875 247.367188 193.480469 247.625 C 193.792969 247.882812 194.015625 248.15625 194.132812 248.453125 L 194.707031 248.234375 C 194.539062 247.804688 194.230469 247.449219 193.875 247.152344 C 193.515625 246.855469 193.097656 246.605469 192.6875 246.394531 C 192.371094 246.230469 192.046875 246.082031 191.761719 245.949219 C 191.683594 245.914062 191.605469 245.878906 191.53125 245.84375 C 191.394531 245.777344 191.273438 245.722656 191.171875 245.667969 M 190.628906 246.070312 C 190.125 246.441406 189.59375 246.828125 189.046875 247.210938 C 189.605469 247.382812 190.273438 247.625 190.894531 247.921875 C 191.332031 248.132812 191.757812 248.375 192.105469 248.648438 C 192.449219 248.914062 192.746094 249.230469 192.886719 249.597656 L 192.3125 249.820312 C 192.230469 249.601562 192.035156 249.371094 191.726562 249.132812 C 191.425781 248.894531 191.042969 248.675781 190.628906 248.476562 C 189.839844 248.097656 188.957031 247.8125 188.355469 247.65625 C 186.039062 248.609375 183.175781 250.039062 181.152344 251.5625 C 180.121094 252.339844 179.339844 253.117188 178.941406 253.851562 C 178.742188 254.210938 178.648438 254.550781 178.652344 254.859375 C 178.65625 255.167969 178.757812 255.472656 178.992188 255.773438 L 178.507812 256.148438 C 178.199219 255.753906 178.046875 255.320312 178.039062 254.871094 C 178.03125 254.425781 178.167969 253.984375 178.402344 253.554688 C 178.863281 252.707031 179.730469 251.863281 180.78125 251.070312 C 182.886719 249.488281 185.835938 248.023438 188.1875 247.0625 M 195.605469 253.648438 C 200.96875 253.445312 206.324219 252.992188 209.878906 252.605469 L 209.8125 251.996094 C 206.269531 252.382812 200.929688 252.832031 195.582031 253.035156 C 190.230469 253.238281 184.898438 253.191406 181.359375 252.59375 L 181.257812 253.199219 C 184.863281 253.808594 190.25 253.851562 195.605469 253.648438 Z M 195.605469 253.648438 " fill-opacity="1" fill-rule="evenodd"/><path fill="#fcbfbc" d="M 204.144531 34.542969 C 202.050781 29.941406 200.714844 19.148438 201.792969 14 C 202.566406 12.792969 222.578125 12.320312 224.1875 21.507812 C 224.957031 25.902344 223.492188 28.816406 221.621094 30.597656 C 221.617188 33.707031 223.683594 42.851562 223.871094 45.964844 C 217.570312 52.003906 210.28125 49.6875 208.855469 47.929688 C 209.191406 44.742188 210.15625 39.636719 209.933594 37.652344 C 207.542969 37.921875 205.304688 37.101562 204.144531 34.542969 Z M 204.144531 34.542969 " fill-opacity="1" fill-rule="nonzero"/><path fill="#253036" d="M 208.621094 22.628906 C 208.578125 23.25 208.878906 23.777344 209.292969 23.804688 C 209.707031 23.835938 210.078125 23.355469 210.121094 22.734375 C 210.164062 22.113281 209.863281 21.585938 209.449219 21.558594 C 209.035156 21.527344 208.664062 22.007812 208.621094 22.628906 Z M 208.621094 22.628906 " fill-opacity="1" fill-rule="nonzero"/><path fill="#253036" d="M 202.480469 22.628906 C 202.4375 23.25 202.738281 23.777344 203.152344 23.804688 C 203.566406 23.835938 203.9375 23.355469 203.980469 22.734375 C 204.023438 22.113281 203.722656 21.585938 203.308594 21.558594 C 202.894531 21.527344 202.523438 22.007812 202.480469 22.628906 Z M 202.480469 22.628906 " fill-opacity="1" fill-rule="nonzero"/><path fill="#253036" d="M 205.800781 30.6875 C 205.664062 30.789062 205.636719 30.984375 205.738281 31.121094 C 206.21875 31.765625 206.851562 32.007812 207.5 32 C 208.132812 31.992188 208.769531 31.75 209.304688 31.457031 C 209.453125 31.375 209.507812 31.1875 209.425781 31.039062 C 209.34375 30.890625 209.160156 30.835938 209.007812 30.917969 C 208.519531 31.1875 207.984375 31.378906 207.496094 31.386719 C 207.023438 31.390625 206.585938 31.222656 206.230469 30.75 C 206.128906 30.617188 205.9375 30.589844 205.800781 30.6875 Z M 205.800781 30.6875 " fill-opacity="1" fill-rule="evenodd"/><path fill="#253036" d="M 210.707031 19.664062 C 209.394531 19.664062 208.238281 20.980469 208.238281 22.734375 C 208.238281 24.488281 209.394531 25.808594 210.707031 25.808594 C 212.019531 25.808594 213.179688 24.488281 213.179688 22.734375 C 213.179688 20.980469 212.019531 19.664062 210.707031 19.664062 Z M 207.644531 22.292969 C 207.824219 20.511719 209.082031 19.046875 210.707031 19.046875 C 212.371094 19.046875 213.652344 20.582031 213.78125 22.425781 L 217.449219 22.425781 L 217.449219 23.042969 L 213.78125 23.042969 C 213.652344 24.886719 212.371094 26.421875 210.707031 26.421875 C 209.011719 26.421875 207.714844 24.828125 207.625 22.9375 C 207.28125 22.800781 207.015625 22.816406 206.824219 22.878906 C 206.636719 22.941406 206.5 23.050781 206.421875 23.144531 C 206.378906 25.078125 205.066406 26.730469 203.339844 26.730469 C 201.582031 26.730469 200.253906 25.019531 200.253906 23.042969 C 200.253906 21.066406 201.582031 19.355469 203.339844 19.355469 C 204.902344 19.355469 206.128906 20.710938 206.378906 22.40625 C 206.453125 22.363281 206.539062 22.328125 206.632812 22.296875 C 206.917969 22.203125 207.261719 22.183594 207.644531 22.292969 Z M 203.339844 19.96875 C 202.027344 19.96875 200.867188 21.285156 200.867188 23.042969 C 200.867188 24.796875 202.027344 26.113281 203.339844 26.113281 C 204.648438 26.113281 205.808594 24.796875 205.808594 23.042969 C 205.808594 21.285156 204.648438 19.96875 203.339844 19.96875 Z M 203.339844 19.96875 " fill-opacity="1" fill-rule="evenodd"/><path fill="#253036" d="M 218.027344 32.507812 C 218.167969 32.605469 218.203125 32.796875 218.109375 32.9375 C 216.367188 35.511719 213.054688 37.609375 209.96875 37.957031 C 209.800781 37.976562 209.648438 37.855469 209.628906 37.6875 C 209.609375 37.519531 209.730469 37.367188 209.902344 37.347656 C 212.796875 37.019531 215.953125 35.027344 217.597656 32.589844 C 217.695312 32.449219 217.886719 32.414062 218.027344 32.507812 Z M 218.027344 32.507812 " fill-opacity="1" fill-rule="evenodd"/><path fill="#253036" d="M 198.933594 7.511719 C 197.800781 18.296875 208.96875 15.390625 216.628906 15.511719 C 217.058594 15.515625 217.34375 15.96875 217.207031 16.378906 C 216.671875 18 215.773438 21.722656 217.3125 25.234375 C 217.894531 23.542969 219.488281 20.6875 221.207031 22.8125 C 223.359375 25.464844 221.515625 29.523438 217.871094 29.542969 C 217.6875 31.277344 218.238281 32.15625 218.171875 32.796875 C 232.324219 26.8125 232.605469 8.457031 224.957031 8.058594 C 221.269531 0.789062 213.839844 5.277344 209.839844 4.859375 C 201.640625 0.128906 199.355469 3.507812 198.933594 7.511719 Z M 198.933594 7.511719 " fill-opacity="1" fill-rule="nonzero"/><path fill="#3e77f4" d="M 223.558594 42.703125 C 216.191406 46.492188 209.988281 52.71875 208.515625 43.625 C 205.761719 45.222656 202.53125 45.789062 199.882812 48.367188 C 197 51.179688 194.8125 56.375 194.703125 67.898438 C 194.699219 68.199219 194.699219 68.507812 194.699219 68.816406 C 194.699219 68.816406 194.285156 79.109375 194.402344 90.761719 C 192.15625 92.179688 190.148438 93.472656 188.558594 94.5 L 191.320312 102.296875 C 192.390625 101.992188 193.511719 101.644531 194.675781 101.257812 C 195 108.582031 195.644531 115.402344 196.847656 119.511719 C 207.105469 130.078125 230.003906 124.734375 237.113281 119.511719 C 233.445312 106.140625 232.234375 87.621094 235.203125 74.84375 C 240.140625 65.3125 241.871094 58.796875 240.730469 53.363281 C 240.570312 52.601562 240.300781 51.859375 239.863281 51.214844 C 236.972656 47 229.0625 43.558594 223.558594 42.703125 Z M 223.558594 42.703125 " fill-opacity="1" fill-rule="nonzero"/><path fill="#253036" d="M 226.519531 62.058594 C 227.769531 60.339844 228.878906 58.816406 229.683594 56.636719 L 229.105469 56.421875 C 228.335938 58.515625 227.292969 59.949219 226.0625 61.644531 C 225.601562 62.273438 225.117188 62.941406 224.609375 63.691406 C 222.761719 66.425781 220.695312 70.183594 218.703125 77.179688 C 214.886719 78.429688 209.132812 81.519531 203.457031 84.863281 C 197.691406 88.257812 191.976562 91.929688 188.390625 94.242188 L 188.722656 94.757812 C 192.308594 92.445312 198.015625 88.78125 203.765625 85.390625 C 209.527344 82 215.308594 78.90625 219.046875 77.714844 L 219.207031 77.664062 L 219.25 77.503906 C 221.238281 70.46875 223.296875 66.734375 225.121094 64.035156 C 225.601562 63.324219 226.070312 62.679688 226.519531 62.058594 Z M 229.648438 85.300781 C 229.671875 85.257812 229.699219 85.1875 229.699219 85.101562 L 229.085938 85.101562 C 229.085938 85.050781 229.105469 85.019531 229.105469 85.015625 C 229.105469 85.015625 229.101562 85.019531 229.089844 85.035156 C 229.0625 85.070312 229.007812 85.121094 228.925781 85.1875 C 228.761719 85.324219 228.511719 85.503906 228.175781 85.722656 C 227.503906 86.15625 226.523438 86.726562 225.296875 87.398438 C 222.84375 88.738281 219.421875 90.472656 215.550781 92.300781 C 207.8125 95.960938 198.3125 99.984375 191.238281 102.003906 L 191.40625 102.59375 C 198.53125 100.5625 208.066406 96.519531 215.816406 92.855469 C 219.691406 91.027344 223.125 89.285156 225.589844 87.9375 C 226.820312 87.261719 227.816406 86.683594 228.507812 86.238281 C 228.851562 86.015625 229.125 85.820312 229.320312 85.660156 C 229.414062 85.582031 229.496094 85.503906 229.558594 85.429688 C 229.589844 85.394531 229.625 85.351562 229.648438 85.300781 Z M 229.648438 85.300781 " fill-opacity="1" fill-rule="evenodd"/><path fill="#fcbfbc" d="M 177.183594 94.316406 C 180.621094 97.511719 184.464844 96.671875 185.488281 96.46875 C 186.121094 96.074219 187.183594 95.386719 188.558594 94.5 L 191.222656 102.324219 C 189.039062 102.945312 187.085938 103.371094 185.488281 103.535156 C 174.742188 115.09375 162.765625 103.535156 167.984375 103.535156 C 172.160156 103.535156 175.542969 100.050781 177.183594 97.699219 C 174.726562 96.160156 172.882812 90.324219 177.183594 94.316406 Z M 177.183594 94.316406 " fill-opacity="1" fill-rule="nonzero"/><path fill="#253036" d="M 241.984375 144.394531 C 239.21875 123.503906 237.273438 124.324219 235.84375 118.894531 C 228.472656 122.070312 210.542969 126.515625 197.769531 118.894531 C 197.15625 137.433594 195.925781 175.976562 195.925781 181.875 L 195.925781 235.949219 C 198.585938 237.484375 207.226562 241.171875 213.121094 237.484375 C 213.121094 200.617188 215.578125 207.683594 215.578125 183.71875 C 216.875 180.753906 218.285156 166.035156 219.265625 154.558594 C 221.675781 163.738281 224.273438 173.875 226.628906 183.71875 L 237.683594 239.636719 C 240.753906 239.53125 250.335938 240.1875 253.035156 237.484375 C 253.035156 235.332031 245.667969 183.71875 245.660156 181.875 C 245.488281 163.203125 242.753906 150.230469 241.984375 144.394531 Z M 241.984375 144.394531 " fill-opacity="1" fill-rule="nonzero"/><path fill="#f2f2f2" d="M 211.167969 141.355469 C 211.320312 141.28125 211.503906 141.339844 211.582031 141.492188 C 211.675781 141.683594 211.953125 142.003906 212.390625 142.417969 C 212.816406 142.820312 213.363281 143.285156 213.949219 143.757812 C 215.125 144.703125 216.457031 145.683594 217.324219 146.292969 L 217.414062 146.359375 L 217.441406 146.46875 C 218.125 149.027344 218.835938 151.710938 219.5625 154.480469 C 219.605469 154.644531 219.507812 154.8125 219.34375 154.855469 C 219.179688 154.898438 219.011719 154.800781 218.96875 154.636719 C 218.25 151.90625 217.550781 149.261719 216.878906 146.734375 C 216.003906 146.113281 214.710938 145.160156 213.5625 144.234375 C 212.96875 143.757812 212.414062 143.28125 211.96875 142.863281 C 211.539062 142.457031 211.179688 142.070312 211.03125 141.769531 C 210.953125 141.617188 211.015625 141.429688 211.167969 141.355469 Z M 211.167969 141.355469 " fill-opacity="1" fill-rule="evenodd"/></svg>